PathFileType	4	(X/Y/Z)	6_coords_data.trc
DataRate	CameraRate	NumFrames	NumMarkers	Units	OrigDataRate	OrigDataStartFrame	OrigNumFrames
30.0	30.0	6	21	m	30.0	1	72
Frame#	Time	THUMB_TIP	THUMB_IP	THUMB_MCP	THUMB_CMC	INDEX_TIP	INDEX_DIP	INDEX_PIP	INDEX_MCP	MIDDLE_TIP	MIDDLE_DIP	MIDDLE_PIP	MIDDLE_MCP	RING_TIP	RING_DIP	RING_PIP	RING_MCP	PINKY_TIP	PINKY_DIP	PINKY_PIP	PINKY_MCP	WRIST
X1	Y1	Z1	X2	Y2	Z2	X3	Y3	Z3	X4	Y4	Z4	X5	Y5	Z5	X6	Y6	Z6	X7	Y7	Z7	X8	Y8	Z8	X9	Y9	Z9	X10	Y10	Z10	X11	Y11	Z11	X12	Y12	Z12	X13	Y13	Z13	X14	Y14	Z14	X15	Y15	Z15	X16	Y16	Z16	X17	Y17	Z17	X18	Y18	Z18	X19	Y19	Z19	X20	Y20	Z20	X21	Y21	Z21
0	-2.749317978547796e-18	0.49517889497279577	-0.029234724057640604	-0.16934015835201757	0.4908981680544071	-0.0320428513905231	-0.14693949322947036	0.47208373647542445	-0.02941985950977455	-0.1222827075923824	0.47281346314043704	-0.030050286907821633	-0.07768494912527826	0.5692492651791468	0.029657093342970287	-0.1700679216643027	0.5545264997770398	0.025368151779278314	-0.16043230237036232	0.5351374076767843	0.019496659493366986	-0.14554611686620123	0.5042262929935061	0.006491053499192767	-0.11929743507527074	0.5945184238629092	0.03757129956264316	-0.14068000875946207	0.5779849735809561	0.03441365824956577	-0.13399612342889788	0.552536295443741	0.027510052495689163	-0.12158183494089	0.5151710586448195	0.016897412630574093	-0.09950562885710196	0.6040498819177712	0.035148814715455834	-0.1068665766533918	0.5878956166122108	0.029150663040496738	-0.10156922930573198	0.565257206224763	0.020842452993386384	-0.0953518343574764	0.5284154427581345	0.010348473733347907	-0.08241809174526704	0.6043148242903575	0.011120315128707703	-0.07162549881262026	0.5874985202042307	0.009594412311501377	-0.06881773502708691	0.5669025940909486	0.006772369660915101	-0.06587564022669426	0.5316076310694436	-0.0002957983530672559	-0.06359747490417822	0.462283081001861	-0.023011742144276925	-0.051989820119430985
1	0.03333333333333339	0.4951000419888735	-0.029745263821955525	-0.16962287764326348	0.4907278234599888	-0.032205721429154455	-0.14719900970084873	0.4718889061371193	-0.02961561386112488	-0.12255744853098524	0.47240801596637205	-0.02965289893676648	-0.0779523015767569	0.5689008407890745	0.029630702935863673	-0.1703803934626815	0.5542585919578005	0.025513486692704146	-0.16054916365303346	0.5347824770860782	0.019563893590328063	-0.14580829785689906	0.5039820649398523	0.0067735326336507695	-0.1193247676499851	0.5945240308312052	0.03809591502863108	-0.14084052990989193	0.5781244866147796	0.034708264581917225	-0.1339427930386869	0.5525806395775026	0.02800320796964595	-0.12161543953672102	0.5154032884330703	0.016192005244229257	-0.0998326946898774	0.6038965899372735	0.0354970539030216	-0.1069941196978055	0.5876601427947775	0.02965127822966207	-0.1017783080672251	0.5650554965374194	0.021422514414616844	-0.09533646107618948	0.528262695913202	0.010329730143986082	-0.08276821563970005	0.6041858113071832	0.011380090205716953	-0.0719073864799766	0.5873909912019558	0.00969125998275	-0.06906452346691333	0.5667804777282129	0.007008008316116365	-0.06609485785574293	0.5314770767442156	-2.674985649975259e-05	-0.06384418964032174	0.4622830810018609	-0.023011742144276925	-0.051989820119430985
2	0.06666666666666676	0.4950505734038402	-0.030162403536948657	-0.16981220670230385	0.4906054325419521	-0.032356392041412496	-0.14737502467870173	0.47173998018979857	-0.029781395081771245	-0.12275218775428406	0.4720936651291605	-0.029352036954412686	-0.07814747322137691	0.5686365537057709	0.029589898236290435	-0.17061464258699394	0.5540558902120136	0.025615037621893544	-0.16063442539607403	0.5345111920504882	0.019614213795978608	-0.1460055252260271	0.503796473546684	0.006990469249462894	-0.1193431315814875	0.5945116915263734	0.03844465415734699	-0.14094595978530583	0.5782171109724187	0.03488984484472968	-0.13388550828971355	0.5525991749890921	0.028347421728649236	-0.12162469242271857	0.5155762296117394	0.015659169445798038	-0.1000734119365782	0.6037818993775641	0.03572170268137953	-0.10708969543437111	0.5874820232103112	0.03000037128244848	-0.10193407675609134	0.5649011913136174	0.021842662005517988	-0.09532062159208335	0.528149843561439	0.010310625598802359	-0.0830295106287634	0.604088650874299	0.011561418527755052	-0.07212200557147089	0.5873113324369488	0.00975037949214519	-0.06925116533501693	0.5666902575523968	0.007173463395145463	-0.0662607150286707	0.5313794253897739	0.00016990969498276165	-0.06402938839367983	0.4622830810018609	-0.023011742144276925	-0.051989820119430985
3	0.10000000000000014	0.49502873286996385	-0.030492686096484478	-0.16992973080723456	0.4905259936306354	-0.032489253358737424	-0.14748559886790769	0.47163247531087193	-0.029914526130368824	-0.12288426261964149	0.47186318359560486	-0.02913853845075165	-0.0782834261161807	0.5684480827769693	0.029534667611904153	-0.17078497284071836	0.5539107647867133	0.02567566615757788	-0.16069663831882214	0.5343144387153081	0.019648874997618693	-0.14614769932598115	0.5036629230824579	0.0071502287781642915	-0.11935395889859664	0.5945006139627713	0.03865341213640516	-0.14101075878893496	0.5782816761326169	0.034988484142574494	-0.13383340841002594	0.5526086356238975	0.028575117591689736	-0.12161975741936595	0.5156993901637086	0.015279665840260193	-0.1002401764299046	0.6037080875679633	0.03584157882010819	-0.10715806869296951	0.5873608844964489	0.03021958728513774	-0.10204317251421952	0.5647939371069851	0.022125536524188028	-0.09530527916389517	0.528072478224879	0.010292123912181483	-0.08321289984782151	0.6040231038745659	0.011661905385987215	-0.07227936459660908	0.5872585241616187	0.009769493127588569	-0.06938667676476479	0.5666297538259802	0.007274243496275812	-0.06638008688303507	0.5313119071747373	0.0003026874779197275	-0.06415959918835723	0.462283081001861	-0.023011742144276925	-0.051989820119430985
4	0.13333333333333353	0.49503169842806016	-0.030743593837765038	-0.16999226064006573	0.4904840291685645	-0.032601150988218586	-0.1475452522483215	0.4715614457265941	-0.030014608695686174	-0.12296750550760879	0.47170750387145444	-0.02900173679830731	-0.07837106217926904	0.5683266987284318	0.029465964670089884	-0.1709026805388696	0.5538158531535742	0.025699530155426475	-0.16074151270493492	0.534182961741032	0.0196696635304342	-0.14624323293566144	0.5035746443637914	0.00726106315776498	-0.11935841123036607	0.5945009627531074	0.038750288514956766	-0.14104479622957045	0.5783298732891722	0.03502562092509953	-0.13379064452902878	0.5526182473638386	0.028711343049088067	-0.12160656733047866	0.5157810143426896	0.015033721739099448	-0.1003441860046223	0.603674044634905	0.03587284313132311	-0.10720338051376524	0.5872930786684056	0.030328370386513814	-0.10211193906890384	0.5647305999399953	0.022291836300187606	-0.09529074764002912	0.5280259290201688	0.010275017580731793	-0.08332897375272538	0.6039873014081532	0.011682509631086635	-0.07238990842616175	0.5872304799476913	0.009747938551656343	-0.06948020581578501	0.566596065593244	0.007316275303669628	-0.0664602758335876	0.5312710658576916	0.00038044192137109967	-0.06424170422639769	0.462283081001861	-0.023011742144276925	-0.051989820119430985
5	0.1666666666666669	0.49505603130053455	-0.030923549483637847	-0.17001281565245316	0.49047387191237446	-0.03269100366832878	-0.14756554586197496	0.47152177112600846	-0.03008320558963995	-0.12301280131143202	0.47161632125926656	-0.02892998689726456	-0.07841962754100101	0.5682633925512888	0.029385478265147924	-0.1709767537808414	0.553764016539545	0.02569175224434761	-0.16077261328037146	0.5341074180027189	0.01967875202869085	-0.14629947279986216	0.5035247401546866	0.00733114245382116	-0.11935745269315783	0.5945168033829675	0.03875719971715874	-0.14105489524702797	0.5783687439190783	0.03501595266997759	-0.13375809827283047	0.5526323264755234	0.028775410046759542	-0.12158838196804833	0.5158284219140898	0.014901219973071478	-0.10039575636780529	0.6036762463211299	0.0358296129984198	-0.10722939963038122	0.5872726458809091	0.030344457982834694	-0.10214658869030177	0.5647061078780151	0.022360747986800655	-0.09527696597408461	0.5280053371763039	0.010259978025902505	-0.08338807913578658	0.6039781090279273	0.011626687885047837	-0.07246443963378332	0.5872243662380975	0.009686110449367846	-0.06954104062777014	0.5665857584039363	0.007305768722497552	-0.06650890294438253	0.5312529414795388	0.0004122818252106919	-0.0642828441886544	0.4622830810018609	-0.023011742144276925	-0.051989820119430985
